<svg xmlns="http://www.w3.org/2000/svg" width="87.272" height="56.024" viewBox="0 0 87.272 56.024"><g transform="translate(195 -113)"><g transform="translate(-195 113)"><g transform="translate(22.164 28.427)"><path d="M366.225,245.8c.258.09.258.258.413.451a.866.866,0,0,1,.787,1.045c0,.026-.013.039-.013.064-.013.464-.026.929-.026,1.393,0,.348.026.7.039,1.045a.671.671,0,0,0,.09.4l.387-.374c.142-.013.322-.039.516-.039a2.114,2.114,0,0,1,1.625.735,1.66,1.66,0,0,1,.219.206.864.864,0,0,1,.348.735c-.013.284,0,.568-.013.851a.554.554,0,0,1-.09.322.508.508,0,0,0-.064.451.383.383,0,0,1-.168.49c-.116.064-.181.232-.258.348a1.95,1.95,0,0,1-.116.232.433.433,0,0,1-.477.232c-.116-.013-.232-.052-.335-.064a.155.155,0,0,0-.193.155.634.634,0,0,0,.052.271c.1.219.219.426.335.645a.4.4,0,0,1,.374.219c.322-.013.645-.039.967-.052.116-.013.155-.09.181-.181a1.228,1.228,0,0,1,.3-.516.8.8,0,0,1,.658-.09.2.2,0,0,1,.09.271,7.238,7.238,0,0,1-.322.722,3.015,3.015,0,0,1-.31.4.636.636,0,0,1-.387.206,6.063,6.063,0,0,0-1.419.451.414.414,0,0,1-.181.013c-.064.206-.142.387-.193.58a7.1,7.1,0,0,1-.464,1.006,4.1,4.1,0,0,0-.4,1.238,1.32,1.32,0,0,0,.026.593c.116.4.219.813.335,1.225.193.774.374,1.548.593,2.309a3.14,3.14,0,0,1,.026,1.1c-.013.245-.013.49-.013.722,0,.116.013.232.013.348a12.368,12.368,0,0,0,.129,1.832c.013.206.039.413.064.619a.438.438,0,0,0,.271.374,3.114,3.114,0,0,0,1.058.31c.3.039.58.09.877.142a.16.16,0,0,0-.013.219.208.208,0,0,0,.09.052.874.874,0,0,1-.322.181c-.31.09-.632.155-.954.219-.464.077-.942.155-1.406.206a2.537,2.537,0,0,1-.542-.013c-.155-.013-.181-.077-.181-.245a.81.81,0,0,0-.039-.245.891.891,0,0,1-.026-.658,1.367,1.367,0,0,0,.039-.787c-.09-.413-.181-.838-.271-1.251-.052-.193-.1-.387-.142-.58a2.385,2.385,0,0,1-.013-1.277.987.987,0,0,0-.335-1.083c-.129.026-.284.065-.439.09-.219.039-.348.013-.451-.232-.077-.206-.193-.4-.31-.632a1.075,1.075,0,0,0-.1.155c-.077.271-.155.555-.206.838a1.034,1.034,0,0,1-.219.516,5.317,5.317,0,0,1-.361.4.764.764,0,0,1-.606.206,1.413,1.413,0,0,1-.684-.206,3.294,3.294,0,0,0-.619-.258c-.516-.181-1.019-.335-1.535-.516-.052-.013-.09-.052-.142-.064a1.155,1.155,0,0,0-.3-.1q-.5-.058-1.006-.077a.451.451,0,0,0-.284.1,4.89,4.89,0,0,0-.58.439,2.112,2.112,0,0,1-.7.361.383.383,0,0,1-.542-.348,1.134,1.134,0,0,1,.168-.735c.232-.439.49-.864.735-1.3.09-.168.129-.361.3-.477.026-.026.052-.039.065-.064.232-.219.413-.155.5.155.013.026.013.064.026.1a1.467,1.467,0,0,1,.8.529.684.684,0,0,0,.426.245c.477.064.942.116,1.419.181.129.013.245.039.374.052a1.531,1.531,0,0,0,.245,0,7.377,7.377,0,0,0,.735.5c0-.413-.026-.8-.013-1.174.013-.464.064-.929.09-1.393.013-.206.013-.4.026-.593,0-.142.013-.271.026-.413a1.705,1.705,0,0,1,.606-1.083,3.915,3.915,0,0,0,.993-1.948.381.381,0,0,0,.026-.129,1.4,1.4,0,0,1,.116-.645c-.116-.129-.206-.258-.322-.374a1.062,1.062,0,0,1-.374-.774c0-.013-.026-.039-.052-.077a.448.448,0,0,0-.3.4,2.088,2.088,0,0,1-.013.284.263.263,0,0,1-.181.258.888.888,0,0,1-.039-.1,1.868,1.868,0,0,1,0-1.187,1.315,1.315,0,0,1,.49-.568,1.408,1.408,0,0,0,.219-.168c.026-.039.013-.1.026-.206-.361.155-.606.413-.942.516a2.8,2.8,0,0,1-.98.232c.013-.155.168-.129.232-.219l-.193-.1c.1-.052.181-.09.245-.116.322-.142.658-.284.98-.439a.815.815,0,0,0,.464-.645,2.787,2.787,0,0,0-.916.155.27.27,0,0,1-.052-.077.377.377,0,0,1-.026-.116l.3-.09c.206-.064.4-.129.606-.193a.319.319,0,0,0,.219-.284,1.405,1.405,0,0,1,.387-.851,1.139,1.139,0,0,0,.077-.129c-.116-.039-.206-.077-.31-.116-.206-.1-.426-.193-.619-.31a.552.552,0,0,1-.181-.206.1.1,0,0,1,.026-.1.125.125,0,0,1,.116-.013c.026,0,.052.039.064.064a1.156,1.156,0,0,0,.813.361c.013,0,.039-.026.052-.026,0-.026,0-.039-.013-.052-.284-.258-.568-.529-.864-.787-.09-.077-.077-.155-.077-.31.116.1.193.181.258.245.155.155.31.31.477.464a1.723,1.723,0,0,0,.8.426.628.628,0,0,0,.155.013.091.091,0,0,0,.064-.052.139.139,0,0,0-.026-.1c-.052-.026-.116-.052-.168-.077-.258-.142-.529-.271-.774-.426a.327.327,0,0,1-.129-.232,1.074,1.074,0,0,1,.193.052c.181.077.361.181.555.245.3.1.348,0,.335-.374a14.362,14.362,0,0,0,.064-1.5.968.968,0,0,0-.193-.722,2.533,2.533,0,0,1-.219-.413,1.519,1.519,0,0,0-.142-.245.7.7,0,0,1-.039-.825.234.234,0,0,0-.013-.3c-.026-.039-.065-.09-.09-.129" transform="translate(-335.076 -242.524)" fill="#fff"/><path d="M209.719,224.553a8.137,8.137,0,0,0-.929-.838c-.335-.258-.671-.5-1.019-.722a9.023,9.023,0,0,0-1.083-.619,7.372,7.372,0,0,0-1.148-.464,4.623,4.623,0,0,0-.58-.116c-.052,0-.1-.013-.142-.013h-.142a2.117,2.117,0,0,0-.3.026,2.893,2.893,0,0,0-.58.116c-.193.064-.374.129-.555.206a5.647,5.647,0,0,0-1.019.645,11.18,11.18,0,0,0-.929.825c-.606.58-1.225,1.161-1.857,1.715-.322.284-.645.555-.98.813s-.684.5-1.032.748a28.116,28.116,0,0,1-4.4,2.554,14.171,14.171,0,0,1-2.425.838,10.728,10.728,0,0,1-2.567.284,8.686,8.686,0,0,1-2.567-.413,9.141,9.141,0,0,1-2.322-1.174,11.1,11.1,0,0,1-1.935-1.715,11.83,11.83,0,0,1-1.522-2.064,10.53,10.53,0,0,1-.568-1.148c-.168-.387-.322-.787-.464-1.187s-.284-.8-.413-1.2-.245-.813-.348-1.225c0-.013,0-.026.013-.026s.026,0,.026.013h0c.258.8.58,1.586.9,2.36.168.387.335.774.516,1.148a8.05,8.05,0,0,0,.606,1.083,13.251,13.251,0,0,0,3.482,3.508,9.427,9.427,0,0,0,2.193,1.1,8.039,8.039,0,0,0,2.4.439,11.288,11.288,0,0,0,2.464-.206,14.481,14.481,0,0,0,2.4-.684,16.638,16.638,0,0,0,2.283-1.058,22.751,22.751,0,0,0,2.115-1.367,19.313,19.313,0,0,0,1.9-1.651c.593-.593,1.161-1.212,1.767-1.806a7.4,7.4,0,0,1,2.089-1.548,5.222,5.222,0,0,1,.632-.219,3.874,3.874,0,0,1,.658-.1,2.916,2.916,0,0,1,.335-.013,1.471,1.471,0,0,1,.335.026,2.767,2.767,0,0,1,.645.155,8.493,8.493,0,0,1,2.257,1.225c.348.258.671.516.993.8a6.665,6.665,0,0,1,.877.929c.013.013,0,.026,0,.039-.039,0-.065,0-.065-.013Z" transform="translate(-177.9 -220.4)" fill="#fff"/></g><g transform="translate(13.574 19.515)"><path d="M114.873,190.044,111.3,188.2l1.509,5.6Z" transform="translate(-111.3 -183.441)" fill="#00b159" stroke="#fff" stroke-miterlimit="10" stroke-width="0.5"/><path d="M114.873,157.9l3.7-6.6-4.553.954-2.721,3.8Z" transform="translate(-111.3 -151.3)" fill="#00aedb" stroke="#fff" stroke-miterlimit="10" stroke-width="0.5"/><path d="M139,157.9l4.708,2.605L142.7,151.3Z" transform="translate(-135.427 -151.3)" fill="#ffc425" stroke="#fff" stroke-miterlimit="10" stroke-width="0.5"/><path d="M123,206.253l2.064-3.753,4.708,2.605-3.985,2.322Z" transform="translate(-121.491 -195.896)" fill="#f37735" stroke="#fff" stroke-miterlimit="10" stroke-width="0.5"/></g><g transform="translate(12.859 18.289)"><path d="M114.929,154.453a3.759,3.759,0,0,1-.374-.49,3.347,3.347,0,0,1-.322-.606,6.427,6.427,0,0,1-1.174,1.29,4.943,4.943,0,0,1-2.012,1.019,3.56,3.56,0,0,1-3.237-.413,4.913,4.913,0,0,1-1.741-2.786,9.084,9.084,0,0,1-.284-3.121,7.788,7.788,0,0,1,.851-3.018,8.1,8.1,0,0,1,2.089-2.541,9.081,9.081,0,0,1,3.431-1.677c.206-.052.439-.1.709-.168s.542-.09.825-.116.568-.026.851-.026a4.621,4.621,0,0,1,.774.077l.181,7.61c.013.374.026.735.052,1.071a6.2,6.2,0,0,0,.181,1.032,4.981,4.981,0,0,0,.387,1.032,8.985,8.985,0,0,0,.619,1.083Zm-3.921-.645a3.673,3.673,0,0,0,1.612-.864,4.984,4.984,0,0,0,1.006-1.3c-.052-.258-.1-.555-.142-.89s-.064-.658-.077-.967l-.09-5.959a2.034,2.034,0,0,0-.5.039,4.711,4.711,0,0,0-.568.116,5.512,5.512,0,0,0-2.218,1.148,5.968,5.968,0,0,0-1.457,1.857,6.286,6.286,0,0,0-.645,2.283,6.935,6.935,0,0,0,.206,2.412,5.64,5.64,0,0,0,.387,1.058,2.5,2.5,0,0,0,.568.761,1.924,1.924,0,0,0,.813.4A2.824,2.824,0,0,0,111.008,153.808Z" transform="translate(-105.752 -141.8)" fill="#fff"/></g><g transform="translate(38.271)"><path d="M303.092,99.055a8.536,8.536,0,0,1-.271-3.121,7.614,7.614,0,0,1,.851-2.928,7.723,7.723,0,0,1,2-2.412,8.723,8.723,0,0,1,3.2-1.561,10.6,10.6,0,0,1,1.87-.348,7.2,7.2,0,0,1,1.586.026l-.31,2a7.112,7.112,0,0,0-1.135-.1,6.216,6.216,0,0,0-1.715.271A5.727,5.727,0,0,0,306.949,92a5.612,5.612,0,0,0-1.419,1.806,6.037,6.037,0,0,0-.606,2.18,6.661,6.661,0,0,0,.206,2.309,4.175,4.175,0,0,0,.451,1.071,2.267,2.267,0,0,0,.813.787,2.911,2.911,0,0,0,1.277.335,5.974,5.974,0,0,0,1.832-.245,6.985,6.985,0,0,0,1.071-.374,9.158,9.158,0,0,0,.942-.464q.426-.252.735-.464a2.078,2.078,0,0,0,.451-.4l.658,1.741a5.854,5.854,0,0,1-1.341.954,9.7,9.7,0,0,1-2.412.942,5.792,5.792,0,0,1-4.334-.206A4.62,4.62,0,0,1,303.092,99.055Z" transform="translate(-302.78 -77.219)" fill="#fff"/><path d="M404.3,46.26l-.5-18.418,2.1-.942.155,6.41a6.507,6.507,0,0,1,1.006-.606,6.144,6.144,0,0,1,1.148-.426,5.252,5.252,0,0,1,1.832-.193,3.231,3.231,0,0,1,1.406.451,3.086,3.086,0,0,1,.993,1.006,5.039,5.039,0,0,1,.619,1.445,6.272,6.272,0,0,1,.193,1.148c.039.413.064.825.064,1.264l.155,6.41-2.089.555-.168-5.907q-.019-.677-.039-1.393A5.333,5.333,0,0,0,411,35.735a2.275,2.275,0,0,0-.916-1.354,2.431,2.431,0,0,0-2.025-.1,5.663,5.663,0,0,0-1.948.9l.232,10.538Z" transform="translate(-390.771 -23.43)" fill="#fff"/><path d="M506.962,18.431a4.167,4.167,0,0,1-1.883.116,3.761,3.761,0,0,1-1.5-.619,3.927,3.927,0,0,1-1.1-1.2,6.078,6.078,0,0,1-.671-1.6,6.853,6.853,0,0,1-.232-1.69L501.3,2.67l2.089-.555.284,10.744a6.475,6.475,0,0,0,.232,1.664,3.887,3.887,0,0,0,.387.98,2.4,2.4,0,0,0,.593.735,1.675,1.675,0,0,0,.825.374,2.277,2.277,0,0,0,1.083-.077,4.251,4.251,0,0,0,1.2-.5,2.558,2.558,0,0,0,.864-.877,3.981,3.981,0,0,0,.49-1.419,12.518,12.518,0,0,0,.142-2.141L509.206.555,511.3,0l.3,11.311a14.277,14.277,0,0,1-.129,2.528,5.869,5.869,0,0,1-.684,2.025,4.9,4.9,0,0,1-1.432,1.535A7.726,7.726,0,0,1,506.962,18.431Z" transform="translate(-475.695)" fill="#fff"/><path d="M609.692,13.13a5.531,5.531,0,0,1,2-.193,3.773,3.773,0,0,1,1.574.5,3.578,3.578,0,0,1,1.135,1.109,5.2,5.2,0,0,1,.7,1.586,10.291,10.291,0,0,1,.348,3.186,7.781,7.781,0,0,1-.761,3.018,7.579,7.579,0,0,1-2.012,2.515,8.886,8.886,0,0,1-3.392,1.664,3.511,3.511,0,0,1-.7.116c-.3.039-.516.052-.684.064l.129,4.359-2.089.555L605.5,15.065a9.974,9.974,0,0,1,.942-.606c.361-.206.722-.387,1.1-.555s.748-.31,1.122-.451C609.021,13.337,609.369,13.22,609.692,13.13ZM607.86,24.751a8.247,8.247,0,0,0,1.251-.206,5.474,5.474,0,0,0,3.611-2.928,6.55,6.55,0,0,0,.58-2.244,7.631,7.631,0,0,0-.232-2.412,4.735,4.735,0,0,0-.374-.954,1.937,1.937,0,0,0-.645-.722,2.18,2.18,0,0,0-.993-.361,3.741,3.741,0,0,0-1.406.142,6.571,6.571,0,0,0-1.122.413c-.374.168-.658.31-.864.426Z" transform="translate(-566.456 -11.247)" fill="#fff"/></g><path d="M217.8,107.4a15.08,15.08,0,0,1-1.483.942,8.545,8.545,0,0,1-1.651.632,6.512,6.512,0,0,1-1.406.219,3.028,3.028,0,0,1-1.225-.206,2.535,2.535,0,0,1-.993-.735,3.525,3.525,0,0,1-.658-1.406,7.292,7.292,0,0,1-.219-1.2c-.052-.426-.077-.864-.09-1.316l-.1-5.185-2.5.671-.064-1.87,2.528-.671-.09-3.534,2.1-.942.09,3.908,4.54-1.212.064,1.87-4.566,1.225.155,5.391c0,.348.013.684.026,1.006a3.664,3.664,0,0,0,.142.916,1.589,1.589,0,0,0,.787,1.174,1.66,1.66,0,0,0,1.574-.181c.206-.219.3.593.761.864" transform="translate(-181.431 -80.831)" fill="#fff"/><path d="M60.622,256.761A2.987,2.987,0,0,1,59.59,255.2a8.993,8.993,0,0,1-.89.3,2.914,2.914,0,0,0,1.148,1.612c.116-.039.219-.09.335-.142C60.325,256.89,60.48,256.825,60.622,256.761Z" transform="translate(-51.91 -222.285)" fill="#fff"/><path d="M73.8,247.725l-.064-.168a.828.828,0,0,0-1.071-.451.7.7,0,0,0-.168.09c-.129.09-.271.193-.426.3a3.552,3.552,0,0,1-.374.219,2.959,2.959,0,0,0,1.083,1.483,8.065,8.065,0,0,0,.774-.516A.816.816,0,0,0,73.8,247.725Z" transform="translate(-63.233 -215.183)" fill="#fff"/><path d="M51.228,135.7a8.066,8.066,0,0,0-1.109.232,2.551,2.551,0,0,0-.335.1,2.925,2.925,0,0,0,.116,1.986,4.154,4.154,0,0,1,.568-.181,5.923,5.923,0,0,1,.658-.129,4.02,4.02,0,0,1-.116-.568A2.893,2.893,0,0,1,51.228,135.7Z" transform="translate(-44.038 -118.198)" fill="#fff"/><path d="M12.432,157.377a3.035,3.035,0,0,1-.426-1.135,2.671,2.671,0,0,1-1.857-.555,4.751,4.751,0,0,1-1.586-2.67,11.993,11.993,0,0,1-.426-3.315,10.822,10.822,0,0,1,.477-3.147,6.865,6.865,0,0,1,1.419-2.541,4.41,4.41,0,0,1,1.1-.916,2.907,2.907,0,0,1-.3-2,6.4,6.4,0,0,0-2.012,1.445,9.183,9.183,0,0,0-2.012,3.237,12.328,12.328,0,0,0-.748,3.985,14.438,14.438,0,0,0,.477,4.14,6.03,6.03,0,0,0,2.373,3.65,4.674,4.674,0,0,0,3.947.529l.181-.052A2.67,2.67,0,0,1,12.432,157.377Z" transform="translate(-6.055 -122.901)" fill="#fff"/><path d="M68.469,135.381c-.219-.052-.464-.1-.748-.142a4.2,4.2,0,0,0-.568-.039,3.1,3.1,0,0,0-.219,1.406,3.526,3.526,0,0,0,.129.619c.077,0,.155.013.232.013a3.507,3.507,0,0,1,.387.052,1.249,1.249,0,0,0,1.393-.89.824.824,0,0,0-.568-1.006C68.482,135.393,68.482,135.393,68.469,135.381Z" transform="translate(-59.074 -117.762)" fill="#fff"/><path d="M71.4,138.873c.026,0,3.121.193,3.25-.335.116-.49-1.561-1.316-2.167-1.483-.064-.013-.451-.013-.49.052Z" transform="translate(-62.972 -119.371)" fill="#fff"/><path d="M73.7,244.341c.064.1.426.039.529-.013.593-.3,2.141-2.128,1.87-2.5-.348-.477-2.27.477-2.928,1.045-.09.077-.206.348-.155.439Z" transform="translate(-64.367 -210.523)" fill="#fff"/><g transform="translate(33.273 1.651)"><path d="M479,18.565l3.341-5.765,5.6,3.237" transform="translate(-451.273 -12.8)" fill="none" stroke="#fff" stroke-linecap="round" stroke-linejoin="round" stroke-width="2"/><ellipse cx="2.193" cy="1.612" rx="2.193" ry="1.612" transform="matrix(0.966, -0.259, 0.259, 0.966, 22.996, 17.983)" fill="#fff"/><ellipse cx="2.193" cy="1.612" rx="2.193" ry="1.612" transform="matrix(0.966, -0.259, 0.259, 0.966, 15.891, 19.893)" fill="#fff"/><path d="M271.115,191.7l-3.715,1.973a1.643,1.643,0,0,0,.245.168l3.47-1.844A1.14,1.14,0,0,0,271.115,191.7Z" transform="translate(-266.965 -168.626)" fill="#fff"/><path d="M268.247,186.406a.787.787,0,0,0-.155-.206l-3.792,2.012a1.374,1.374,0,0,0,.09.245Z" transform="translate(-264.265 -163.835)" fill="#fff"/><path d="M264.035,186.341l3.715-1.973a1.644,1.644,0,0,0-.245-.168l-3.47,1.844A1.144,1.144,0,0,0,264.035,186.341Z" transform="translate(-264.025 -162.093)" fill="#fff"/><path d="M270.4,196.954a2.408,2.408,0,0,0,2.012-.193,2.465,2.465,0,0,0,1.29-1.561Z" transform="translate(-269.578 -171.674)" fill="#fff"/><path d="M269.26,188.945a1.375,1.375,0,0,0-.09-.245l-3.869,2.051a1.231,1.231,0,0,0,.155.206Z" transform="translate(-265.136 -166.013)" fill="#fff"/><path d="M267.6,182.755a2.408,2.408,0,0,0-2.012.193,2.465,2.465,0,0,0-1.29,1.561Z" transform="translate(-264.265 -160.713)" fill="#fff"/></g></g></g></svg>