<?xml version="1.0" encoding="utf-8"?>
<!-- Generator: Adobe Illustrator 24.1.0, SVG Export Plug-In . SVG Version: 6.00 Build 0)  -->
<svg version="1.1" xmlns="http://www.w3.org/2000/svg" xmlns:xlink="http://www.w3.org/1999/xlink" x="0px" y="0px"
	 viewBox="0 0 682.6 434.3" style="enable-background:new 0 0 682.6 434.3;" xml:space="preserve">
<style type="text/css">
	.st0{fill:#00B159;stroke:#000000;stroke-width:0.5;stroke-miterlimit:10;}
	.st1{fill:#00AEDB;stroke:#000000;stroke-width:0.5;stroke-miterlimit:10;}
	.st2{fill:#FFC425;stroke:#000000;stroke-width:0.5;stroke-miterlimit:10;}
	.st3{fill:#F37735;stroke:#000000;stroke-width:0.5;stroke-miterlimit:10;}
	.st4{enable-background:new    ;}
	.st5{fill:none;stroke:#000000;stroke-width:10;stroke-linecap:round;stroke-linejoin:round;}
</style>
<g id="Layer_2">
	<path d="M419.4,245.8c2,0.7,2,2,3.2,3.5c4,0,6.8,4.1,6.1,8.1c0,0.2-0.1,0.3-0.1,0.5c-0.1,3.6-0.2,7.2-0.2,10.8
		c0,2.7,0.2,5.4,0.3,8.1c0,1,0,2,0.7,3.1l3-2.9c1.1-0.1,2.5-0.3,4-0.3c5-0.1,9.1,2,12.6,5.7c0.6,0.5,1.2,1,1.7,1.6
		c1.8,1.5,2.8,3.3,2.7,5.7c-0.1,2.2,0,4.4-0.1,6.6c0,0.9-0.2,1.8-0.7,2.5c-0.7,1-0.9,2.3-0.5,3.5c0.4,1.6,0.3,2.8-1.3,3.8
		c-0.9,0.5-1.4,1.8-2,2.7c-0.3,0.6-0.5,1.2-0.9,1.8c-0.7,1.4-2.2,2.1-3.7,1.8c-0.9-0.1-1.8-0.4-2.6-0.5c-0.9-0.1-1.4,0.3-1.5,1.2
		c0,0.7,0.1,1.5,0.4,2.1c0.8,1.7,1.7,3.3,2.6,5c1.2-0.1,2.3,0.6,2.9,1.7c2.5-0.1,5-0.3,7.5-0.4c0.9-0.1,1.2-0.7,1.4-1.4
		c0.6-1.4,1-2.9,2.3-4c1.1-0.9,3.9-1.3,5.1-0.7c0.8,0.4,1.1,1.4,0.7,2.1c-0.7,1.9-1.6,3.8-2.5,5.6c-0.7,1.1-1.5,2.1-2.4,3.1
		c-0.8,0.9-1.8,1.4-3,1.6c-3.8,0.7-7.5,1.9-11,3.5c-0.4,0.1-0.9,0.2-1.4,0.1c-0.5,1.6-1.1,3-1.5,4.5c-0.9,2.8-2.3,5.2-3.6,7.8
		c-1.5,3-2.6,6.2-3.1,9.6c-0.3,1.5-0.2,3.1,0.2,4.6c0.9,3.1,1.7,6.3,2.6,9.5c1.5,6,2.9,12,4.6,17.9c0.8,2.9,0.4,5.7,0.2,8.5
		c-0.1,1.9-0.1,3.8-0.1,5.6c0,0.9,0.1,1.8,0.1,2.7c0,4.8,0.3,9.5,1,14.2c0.1,1.6,0.3,3.2,0.5,4.8c0.1,1.3,0.9,2.4,2.1,2.9
		c2.6,1.3,5.4,2.1,8.2,2.4c2.3,0.3,4.5,0.7,6.8,1.1c-0.5,0.5-0.5,1.2-0.1,1.7c0.2,0.2,0.4,0.3,0.7,0.4c-0.7,0.6-1.5,1.1-2.5,1.4
		c-2.4,0.7-4.9,1.2-7.4,1.7c-3.6,0.6-7.3,1.2-10.9,1.6c-1.4,0.1-2.8,0.1-4.2-0.1c-1.2-0.1-1.4-0.6-1.4-1.9c0-0.6-0.1-1.3-0.3-1.9
		c-0.7-1.6-0.8-3.4-0.2-5.1c0.7-2,0.8-4.1,0.3-6.1c-0.7-3.2-1.4-6.5-2.1-9.7c-0.4-1.5-0.8-3-1.1-4.5c-0.9-3.2-1-6.7-0.1-9.9
		c0.8-3.3,0.2-6-2.6-8.4c-1,0.2-2.2,0.5-3.4,0.7c-1.7,0.3-2.7,0.1-3.5-1.8c-0.6-1.6-1.5-3.1-2.4-4.9c-0.3,0.4-0.6,0.8-0.8,1.2
		c-0.6,2.1-1.2,4.3-1.6,6.5c-0.2,1.5-0.8,2.9-1.7,4c-0.9,1.1-1.8,2.1-2.8,3.1c-1.3,1.2-3,1.8-4.7,1.6c-1.9-0.1-3.7-0.6-5.3-1.6
		c-1.5-0.8-3.1-1.5-4.8-2c-4-1.4-7.9-2.6-11.9-4c-0.4-0.1-0.7-0.4-1.1-0.5c-0.7-0.4-1.5-0.6-2.3-0.8c-2.6-0.3-5.2-0.5-7.8-0.6
		c-0.8,0-1.6,0.3-2.2,0.8c-1.6,1-3.1,2.2-4.5,3.4c-1.6,1.4-3.5,2.1-5.4,2.8c-2.2,0.8-3.9-0.4-4.2-2.7c-0.2-2,0.2-4,1.3-5.7
		c1.8-3.4,3.8-6.7,5.7-10.1c0.7-1.3,1-2.8,2.3-3.7c0.2-0.2,0.4-0.3,0.5-0.5c1.8-1.7,3.2-1.2,3.9,1.2c0.1,0.2,0.1,0.5,0.2,0.8
		c2.6,0.4,4.5,2.3,6.2,4.1c0.8,1,2,1.7,3.3,1.9c3.7,0.5,7.3,0.9,11,1.4c1,0.1,1.9,0.3,2.9,0.4c0.5,0.1,1.1,0,1.9,0
		c1.8,1.4,3.7,2.7,5.7,3.9c0-3.2-0.2-6.2-0.1-9.1c0.1-3.6,0.5-7.2,0.7-10.8c0.1-1.6,0.1-3.1,0.2-4.6c0-1.1,0.1-2.1,0.2-3.2
		c0.2-3.5,2.4-6.1,4.7-8.4c4.3-4.2,6.3-9.5,7.7-15.1c0.1-0.3,0.2-0.6,0.2-1c-0.4-1.8,0.5-3.3,0.9-5c-0.9-1-1.6-2-2.5-2.9
		c-1.7-1.7-2.9-3.5-2.9-6c0-0.1-0.2-0.3-0.4-0.6c-1.3,0.6-2.2,1.5-2.3,3.1c0,0.7,0,1.5-0.1,2.2c0,0.9-0.5,1.7-1.4,2
		c-0.1-0.2-0.2-0.5-0.3-0.8c-0.9-3.1-1.1-6.1,0-9.2c0.7-2,2.3-3.2,3.8-4.4c0.6-0.4,1.2-0.8,1.7-1.3c0.2-0.3,0.1-0.8,0.2-1.6
		c-2.8,1.2-4.7,3.2-7.3,4c-2.5,0.7-4.8,2-7.6,1.8c0.1-1.2,1.3-1,1.8-1.7l-1.5-0.8c0.8-0.4,1.4-0.7,1.9-0.9c2.5-1.1,5.1-2.2,7.6-3.4
		c2-0.9,3.3-2.8,3.6-5c-2.4,0-4.8,0.4-7.1,1.2c-0.2-0.2-0.3-0.4-0.4-0.6c-0.1-0.3-0.2-0.6-0.2-0.9l2.3-0.7c1.6-0.5,3.1-1,4.7-1.5
		c1-0.3,1.6-1.2,1.7-2.2c0.2-2.5,1.3-4.8,3-6.6c0.2-0.3,0.4-0.6,0.6-1c-0.9-0.3-1.6-0.6-2.4-0.9c-1.6-0.8-3.3-1.5-4.8-2.4
		c-0.6-0.4-1.1-1-1.4-1.6c-0.1-0.3,0-0.6,0.2-0.8c0.3-0.2,0.6-0.2,0.9-0.1c0.2,0,0.4,0.3,0.5,0.5c1.6,2,4,2.5,6.3,2.8
		c0.1,0,0.3-0.2,0.4-0.2c0-0.2,0-0.3-0.1-0.4c-2.2-2-4.4-4.1-6.7-6.1c-0.7-0.6-0.6-1.2-0.6-2.4c0.9,0.8,1.5,1.4,2,1.9
		c1.2,1.2,2.4,2.4,3.7,3.6c1.7,1.6,3.9,2.8,6.2,3.3c0.4,0.1,0.8,0.1,1.2,0.1c0.2,0,0.5-0.3,0.5-0.4c0-0.3,0-0.6-0.2-0.8
		c-0.4-0.2-0.9-0.4-1.3-0.6c-2-1.1-4.1-2.1-6-3.3c-0.6-0.4-0.9-1.1-1-1.8c0.5,0.1,1,0.2,1.5,0.4c1.4,0.6,2.8,1.4,4.3,1.9
		c2.3,0.8,2.7,0,2.6-2.9c0.4-3.8,0.5-7.7,0.5-11.6c0.3-2-0.3-4-1.5-5.6c-0.7-1-1.2-2.1-1.7-3.2c-0.3-0.7-0.7-1.3-1.1-1.9
		c-1.4-2.1-1.7-4.2-0.3-6.4c0.5-0.7,0.5-1.6-0.1-2.3c-0.2-0.3-0.5-0.7-0.7-1"/>
	<g>
		<path d="M424.6,252.6c-2.2-2.4-4.7-4.5-7.2-6.5c-2.6-2-5.2-3.9-7.9-5.6c-2.7-1.8-5.5-3.4-8.4-4.8c-2.9-1.4-5.8-2.7-8.9-3.6
			c-1.5-0.4-3-0.7-4.5-0.9c-0.4,0-0.8-0.1-1.1-0.1c-0.4,0-0.7,0-1.1,0c-0.8,0-1.6,0.1-2.3,0.2c-1.5,0.1-3.1,0.5-4.5,0.9
			c-1.5,0.5-2.9,1-4.3,1.6c-2.8,1.3-5.4,3.1-7.9,5c-2.5,2-4.9,4.1-7.2,6.4c-4.7,4.5-9.5,9-14.4,13.3c-2.5,2.2-5,4.3-7.6,6.3
			c-2.6,2-5.3,3.9-8,5.8c-10.8,7.4-22,14.4-34.1,19.8c-6,2.7-12.3,4.9-18.8,6.5c-6.5,1.5-13.2,2.3-19.9,2.2
			c-6.7-0.1-13.5-1.1-19.9-3.2c-6.4-2.1-12.5-5.3-18-9.1c-5.5-3.8-10.5-8.3-15-13.3c-4.5-4.9-8.5-10.3-11.8-16
			c-1.7-2.9-3.1-5.9-4.4-8.9c-1.3-3-2.5-6.1-3.6-9.2c-1.1-3.1-2.2-6.2-3.2-9.3c-1-3.1-1.9-6.3-2.7-9.5c0-0.1,0-0.2,0.1-0.2
			c0.1,0,0.2,0,0.2,0.1l0,0c2,6.2,4.5,12.3,7,18.3c1.3,3,2.6,6,4,8.9c1.4,2.9,2.9,5.8,4.7,8.4c7.3,10.6,16.4,20.1,27,27.2
			c5.3,3.5,11,6.5,17,8.5c6,2.1,12.3,3.2,18.6,3.4c6.4,0.2,12.8-0.4,19.1-1.6c6.3-1.2,12.5-3,18.6-5.3c6.1-2.3,12-5,17.7-8.2
			c5.7-3.2,11.1-6.8,16.4-10.6c5.2-3.9,10.1-8.3,14.7-12.8c4.6-4.6,9-9.4,13.7-14c4.7-4.6,9.8-9.1,16.2-12c1.6-0.7,3.2-1.2,4.9-1.7
			c1.7-0.4,3.4-0.7,5.1-0.8c0.9-0.1,1.7-0.1,2.6-0.1c0.8,0,1.8,0,2.6,0.2c1.7,0.2,3.4,0.6,5,1.2c6.5,2.1,12.1,5.7,17.5,9.5
			c2.7,2,5.2,4,7.7,6.2c2.4,2.2,4.8,4.5,6.8,7.2c0.1,0.1,0,0.2,0,0.3C424.8,252.7,424.6,252.7,424.6,252.6L424.6,252.6z"/>
	</g>
</g>
<g id="Layer_1">
	<g id="Layer_2_1_">
		<g id="Layer_3">
			<polygon class="st0" points="139,202.5 111.3,188.2 123,231.6 			"/>
			<polygon class="st1" points="139,202.5 167.7,151.3 132.4,158.7 111.3,188.2 			"/>
			<polygon class="st2" points="139,202.5 175.5,222.7 167.7,151.3 			"/>
			<polygon class="st3" points="123,231.6 139,202.5 175.5,222.7 144.6,240.7 			"/>
		</g>
		<g id="Layer_1-2">
			<g class="st4">
				<path d="M176.9,239.9c-1-1.1-2-2.4-2.9-3.8c-0.9-1.4-1.8-2.9-2.5-4.7c-2,3.1-5,6.4-9.1,10c-4.1,3.6-9.3,6.2-15.6,7.9
					c-10.3,2.8-18.7,1.7-25.1-3.2c-6.5-4.9-11-12.1-13.5-21.6c-2.1-7.9-2.9-16-2.2-24.2c0.6-8.2,2.8-16,6.6-23.4s9.2-13.9,16.2-19.7
					c7.1-5.8,15.9-10.1,26.6-13c1.6-0.4,3.4-0.8,5.5-1.3c2.1-0.4,4.2-0.7,6.4-0.9c2.2-0.2,4.4-0.2,6.6-0.2c2.2,0,4.2,0.3,6,0.6
					l1.4,59c0.1,2.9,0.2,5.7,0.4,8.3c0.2,2.6,0.7,5.2,1.4,8s1.7,5.4,3,8c1.2,2.6,2.8,5.3,4.8,8.4L176.9,239.9z M146.5,234.9
					c5-1.3,9.2-3.6,12.5-6.7c3.3-3.1,5.9-6.5,7.8-10.1c-0.4-2-0.8-4.3-1.1-6.9c-0.3-2.6-0.5-5.1-0.6-7.5l-0.7-46.2
					c-0.7-0.1-2,0-3.9,0.3c-1.9,0.3-3.4,0.6-4.4,0.9c-6.7,1.8-12.5,4.8-17.2,8.9c-4.8,4.1-8.5,8.9-11.3,14.4
					c-2.8,5.5-4.4,11.4-5,17.7c-0.6,6.3,0,12.5,1.6,18.7c0.8,3,1.8,5.8,3,8.2c1.2,2.4,2.7,4.4,4.4,5.9c1.7,1.5,3.9,2.5,6.3,3.1
					C140.4,235.9,143.3,235.8,146.5,234.9z"/>
			</g>
			<g class="st4">
				<path d="M305.2,169.3c-2.2-8-2.9-16.1-2.1-24.2c0.7-8.1,2.9-15.7,6.6-22.7c3.7-7.1,8.9-13.3,15.5-18.7c6.7-5.4,15-9.4,24.8-12.1
					c5.4-1.4,10.2-2.4,14.5-2.7c4.3-0.4,8.4-0.3,12.3,0.2l-2.4,15.5c-2.5-0.5-5.5-0.7-8.8-0.8c-3.3-0.1-7.8,0.6-13.3,2.1
					c-6.7,1.8-12.4,4.7-17.2,8.7c-4.7,4-8.4,8.7-11,14c-2.6,5.3-4.2,10.9-4.7,16.9c-0.5,6,0,12,1.6,17.9c0.8,3,2,5.8,3.5,8.3
					c1.5,2.5,3.6,4.5,6.3,6.1c2.7,1.5,6,2.4,9.9,2.6c3.9,0.2,8.7-0.4,14.2-1.9c2.9-0.8,5.7-1.7,8.3-2.9c2.7-1.1,5.1-2.4,7.3-3.6
					c2.2-1.3,4.1-2.5,5.7-3.6c1.6-1.1,2.8-2.2,3.5-3.1l5.1,13.5c-2,2.1-5.4,4.6-10.4,7.4c-4.9,2.9-11.2,5.3-18.7,7.3
					c-13.7,3.7-24.9,3.1-33.6-1.6C313.7,187.1,308,179.5,305.2,169.3z"/>
				<path d="M407.7,177l-3.9-142.8l16.3-7.3l1.2,49.7c2.4-1.8,5-3.3,7.8-4.7c2.9-1.4,5.8-2.5,8.9-3.3c5.3-1.4,10-1.9,14.2-1.5
					c4.2,0.4,7.8,1.6,10.9,3.5c3.1,1.9,5.6,4.5,7.7,7.8c2.1,3.3,3.7,7,4.8,11.2c0.7,2.8,1.3,5.7,1.5,8.9c0.3,3.2,0.5,6.4,0.5,9.8
					l1.2,49.7l-16.2,4.3l-1.3-45.8c-0.1-3.5-0.2-7.1-0.3-10.8c-0.1-3.7-0.5-7.2-1.4-10.3c-1.2-4.6-3.6-8.1-7.1-10.5
					c-3.5-2.4-8.7-2.7-15.7-0.8c-5.9,1.6-11,3.9-15.1,7l1.8,81.7L407.7,177z"/>
				<path d="M545.2,142.9c-5.4,1.4-10.3,1.8-14.6,0.9c-4.3-0.8-8.2-2.4-11.6-4.8c-3.4-2.4-6.2-5.5-8.5-9.3c-2.3-3.8-4-7.9-5.2-12.4
					c-1.1-4-1.7-8.3-1.8-13.1l-2.2-83.5l16.2-4.3l2.2,83.3c0.1,4.8,0.7,9.1,1.8,12.9c0.7,2.8,1.7,5.3,3,7.6c1.2,2.3,2.8,4.2,4.6,5.7
					c1.8,1.5,3.9,2.5,6.4,2.9c2.5,0.5,5.3,0.3,8.4-0.6c3.6-1,6.7-2.2,9.3-3.9c2.7-1.6,4.9-3.9,6.7-6.8c1.8-2.9,3-6.5,3.8-11
					c0.8-4.4,1.1-10,1.1-16.6l-2.2-85.6L578.8,0l2.3,87.7c0.2,7.1-0.1,13.7-1,19.6c-0.9,5.9-2.7,11.1-5.3,15.7
					c-2.7,4.6-6.4,8.6-11.1,11.9C558.9,138.2,552.7,140.9,545.2,142.9z"/>
				<path d="M638,14.6c5.7-1.5,10.8-2,15.5-1.5c4.7,0.5,8.7,1.8,12.2,3.9c3.5,2.1,6.4,5,8.8,8.6c2.4,3.6,4.2,7.7,5.4,12.3
					c2.2,8.2,3.1,16.4,2.7,24.7c-0.4,8.3-2.4,16.1-5.9,23.4c-3.5,7.3-8.8,13.8-15.6,19.5c-6.9,5.7-15.6,10-26.3,12.9
					c-1.3,0.4-3.1,0.7-5.4,0.9c-2.3,0.3-4,0.4-5.3,0.5l1,33.8l-16.2,4.3l-3.4-128.3c2.1-1.6,4.6-3.1,7.3-4.7c2.8-1.6,5.6-3,8.5-4.3
					c2.9-1.3,5.8-2.4,8.7-3.5C632.8,16.2,635.5,15.3,638,14.6z M623.8,104.7c1.3-0.1,2.9-0.2,4.8-0.6c2-0.3,3.6-0.6,4.9-1
					c6.7-1.8,12.4-4.7,17.1-8.7s8.3-8.7,10.9-14C664,75,665.5,69.2,666,63c0.4-6.3-0.2-12.5-1.8-18.7c-0.7-2.6-1.7-5.1-2.9-7.4
					c-1.2-2.3-2.9-4.2-5-5.6c-2.1-1.5-4.7-2.4-7.7-2.8c-3.1-0.4-6.7,0-10.9,1.1c-2.9,0.8-5.8,1.8-8.7,3.2c-2.9,1.3-5.1,2.4-6.7,3.3
					L623.8,104.7z"/>
			</g>
			<path d="M288,206c-3.7,2.7-7.6,5.1-11.5,7.3c-4.1,2.1-8.4,3.7-12.8,4.9c-3.6,1-7.2,1.5-10.9,1.7c-3.3,0.1-6.5-0.4-9.5-1.6
				c-3-1.2-5.6-3.2-7.7-5.7c-2.5-3.2-4.2-6.9-5.1-10.9c-0.8-3-1.4-6.1-1.7-9.3c-0.4-3.3-0.6-6.7-0.7-10.2l-0.8-40.2l-19.4,5.2
				l-0.5-14.5l19.6-5.2l-0.7-27.4l16.3-7.3l0.7,30.3l35.2-9.4l0.5,14.5l-35.4,9.5l1.2,41.8c0,2.7,0.1,5.3,0.2,7.8
				c0.1,2.4,0.4,4.8,1.1,7.1c1.3,5,3.4,8,6.1,9.1c2.8,1,9.2,1.8,12.2-1.4c1.6-1.7,2.3,4.6,5.9,6.7"/>
			<path d="M73.6,267.3c-3.9-3.1-6.7-7.3-8-12.1c-2.2,0.9-4.5,1.6-6.9,2.3c1.4,5.1,4.6,9.5,8.9,12.5c0.9-0.3,1.7-0.7,2.6-1.1
				C71.3,268.3,72.5,267.8,73.6,267.3z"/>
			<path d="M88,252.3l-0.5-1.3c-1.3-3.2-5-4.8-8.3-3.5c-0.5,0.2-0.9,0.4-1.3,0.7c-1,0.7-2.1,1.5-3.3,2.3c-0.9,0.6-1.9,1.2-2.9,1.7
				c1.5,4.6,4.4,8.6,8.4,11.5c2.1-1.2,4.1-2.6,6-4C88.3,258,89.1,254.9,88,252.3z"/>
			<path d="M61.8,135.7c-2.9,0.4-5.8,1-8.6,1.8c-0.9,0.2-1.8,0.5-2.6,0.8c-1.5,5.1-1.2,10.5,0.9,15.4c1.4-0.6,2.9-1,4.4-1.4
				c1.7-0.4,3.4-0.8,5.1-1c-0.4-1.4-0.7-2.9-0.9-4.4C59.7,143,60.3,139.2,61.8,135.7z"/>
			<path d="M55.5,267.3c-1.7-2.7-2.8-5.7-3.3-8.8c-5.2,0.4-10.3-1.1-14.4-4.3c-5.7-4.3-9.8-11.3-12.3-20.7c-2.3-8.4-3.4-17-3.3-25.7
				c0-8.3,1.3-16.5,3.7-24.4c2.2-7.3,6-14,11-19.7c2.4-2.8,5.3-5.2,8.5-7.1c-2.6-4.7-3.4-10.2-2.3-15.5c-5.9,2.7-11.2,6.5-15.6,11.2
				c-6.9,7.2-12.2,15.7-15.6,25.1c-3.6,9.9-5.6,20.3-5.8,30.9c-0.3,10.8,0.9,21.7,3.7,32.1c3.5,13,9.6,22.5,18.4,28.3
				s19,7.2,30.6,4.1l1.4-0.4C58.3,271,56.8,269.2,55.5,267.3z"/>
			<path d="M78.9,136.6c-1.7-0.4-3.6-0.8-5.8-1.1c-1.5-0.2-2.9-0.3-4.4-0.3c-1.4,3.5-2,7.2-1.7,10.9c0.2,1.6,0.5,3.2,1,4.8
				c0.6,0,1.2,0.1,1.8,0.1c1.1,0.1,2,0.2,3,0.4c4.8,0.8,9.4-2.2,10.8-6.9c0.9-3.4-1.1-6.9-4.4-7.8C79,136.7,79,136.7,78.9,136.6z"/>
			<path d="M71.4,151.2c0.2,0,24.2,1.5,25.2-2.6c0.9-3.8-12.1-10.2-16.8-11.5c-0.5-0.1-3.5-0.1-3.8,0.4L71.4,151.2z"/>
			<path d="M78.4,262.2c0.5,0.8,3.3,0.3,4.1-0.1c4.6-2.3,16.6-16.5,14.5-19.4c-2.7-3.7-17.6,3.7-22.7,8.1c-0.7,0.6-1.6,2.7-1.2,3.4
				L78.4,262.2z"/>
		</g>
		<g id="Layer_2-2">
			<polyline class="st5" points="479,57.5 504.9,12.8 548.3,37.9 			"/>
			<ellipse transform="matrix(0.9659 -0.2588 0.2588 0.9659 -25.6552 125.0163)" cx="462" cy="159.9" rx="17" ry="12.5"/>
			<ellipse transform="matrix(0.9659 -0.2588 0.2588 0.9659 -31.3495 111.269)" cx="406.9" cy="174.7" rx="17" ry="12.5"/>
			<path d="M296.2,191.7L267.4,207c0.6,0.5,1.2,0.9,1.9,1.3l26.9-14.3C296.3,193.2,296.3,192.4,296.2,191.7z"/>
			<path d="M294.9,187.8c-0.3-0.6-0.7-1.1-1.2-1.6l-29.4,15.6c0.2,0.7,0.4,1.3,0.7,1.9L294.9,187.8z"/>
			<path d="M264.1,200.8l28.8-15.3c-0.6-0.5-1.2-0.9-1.9-1.3l-26.9,14.3C264,199.3,264,200,264.1,200.8z"/>
			<path d="M270.4,208.8c4.3,1.8,10.2,1.4,15.6-1.5c5.4-2.9,9-7.5,10-12.1L270.4,208.8z"/>
			<path d="M296,190.6c-0.2-0.7-0.4-1.3-0.7-1.9l-30,15.9c0.3,0.6,0.8,1.1,1.2,1.6L296,190.6z"/>
			<path d="M289.9,183.7c-4.3-1.8-10.2-1.4-15.6,1.5s-9,7.5-10,12.1L289.9,183.7z"/>
		</g>
	</g>
</g>
</svg>
