<svg xmlns="http://www.w3.org/2000/svg" viewBox="0 0 717.31 533.14"><defs><style>.cls-1{fill:#00b159;}.cls-1,.cls-2,.cls-3,.cls-4,.cls-5,.cls-9{stroke:#000;}.cls-1,.cls-2,.cls-3,.cls-4,.cls-5{stroke-miterlimit:10;}.cls-1,.cls-2,.cls-3,.cls-4{stroke-width:0.5px;}.cls-2{fill:#00aedb;}.cls-3{fill:#ffc425;}.cls-4{fill:#f37735;}.cls-5,.cls-6,.cls-9{fill:none;}.cls-5,.cls-9{stroke-linecap:round;}.cls-5{stroke-width:5px;}.cls-6{font-size:204.65px;font-family:UbuntuMono-Italic, Ubuntu Mono;font-style:italic;}.cls-7{fill:#000;}.cls-8{letter-spacing:0em;}.cls-9{stroke-linejoin:round;stroke-width:10px;}</style></defs><g id="Layer_2" data-name="Layer 2"><g id="Layer_3" data-name="Layer 3"><polygon class="cls-1" points="152.31 128.33 129.31 107.33 129.31 152.33 152.31 128.33"/><polygon class="cls-2" points="152.31 128.33 193.31 86.33 157.31 84.33 129.31 107.33 152.31 128.33"/><polygon class="cls-3" points="152.31 128.33 182.31 157.33 193.31 86.33 152.31 128.33"/><polygon class="cls-4" points="129.31 152.33 152.31 128.33 182.31 157.33 147.91 166.66 129.31 152.33"/><path class="cls-5" d="M186.81,168.83c-1,2,.26,7.45,1.5,11.5,3.22,10.54,12.4,15.57,15,17,16.08,8.82,132.6,53.47,134.5,52.5"/><path d="M339.31,248.33c3,1,3,3,4.77,5.29,6,0,10.34,6.24,9.25,12.22a6.2,6.2,0,0,0-.16.72c-.11,5.43-.32,10.87-.3,16.3,0,4.07.32,8.15.52,12.22.07,1.45-.05,2.95,1.11,4.65l4.49-4.34c1.61-.13,3.81-.42,6-.47,7.62-.2,13.81,3,19,8.59a30.06,30.06,0,0,1,2.56,2.36c2.69,2.27,4.24,5,4.09,8.6-.15,3.35,0,6.7-.12,10a7.52,7.52,0,0,1-1,3.84,6,6,0,0,0-.8,5.3c.59,2.37.45,4.2-2,5.69-1.34.81-2.05,2.7-3,4.15-.52.84-.81,1.81-1.29,2.67a5,5,0,0,1-5.62,2.66c-1.34-.21-2.66-.65-4-.8s-2.18.43-2.22,1.84a7.51,7.51,0,0,0,.53,3.23c1.2,2.58,2.64,5.05,3.93,7.59a4.62,4.62,0,0,1,4.33,2.55c3.77-.18,7.54-.41,11.32-.64,1.36-.08,1.77-1.08,2.19-2.18.85-2.18,1.58-4.42,3.53-6,1.65-1.33,5.91-2,7.72-1a2.42,2.42,0,0,1,1,3.23,76.75,76.75,0,0,1-3.84,8.4,34.56,34.56,0,0,1-3.66,4.68,7,7,0,0,1-4.52,2.36,74.1,74.1,0,0,0-16.56,5.33,7,7,0,0,1-2.07.2c-.81,2.37-1.61,4.58-2.31,6.82-1.29,4.17-3.53,7.9-5.49,11.75A47,47,0,0,0,362,410.63a16.11,16.11,0,0,0,.28,7q2,7.13,3.86,14.28c2.32,9,4.4,18.06,6.94,27,1.25,4.37.56,8.56.24,12.86-.21,2.83-.11,5.67-.1,8.51,0,1.36.19,2.72.17,4.08a144.29,144.29,0,0,0,1.56,21.48c.16,2.41.47,4.81.71,7.21a5.23,5.23,0,0,0,3.24,4.42,39,39,0,0,0,12.42,3.68c3.42.4,6.83,1,10.23,1.6a1.83,1.83,0,0,0,.92,3.15,9.67,9.67,0,0,1-3.71,2.1c-3.7,1-7.46,1.88-11.23,2.54Q379.26,532,371,533a27.11,27.11,0,0,1-6.3-.08c-1.77-.19-2.08-.88-2.13-2.8a8,8,0,0,0-.38-2.87,10.24,10.24,0,0,1-.24-7.63,16.48,16.48,0,0,0,.44-9.15c-1.11-4.86-2.09-9.75-3.18-14.62-.63-2.27-1.26-4.55-1.73-6.87a27.52,27.52,0,0,1-.11-15c1.27-5,.28-9-3.86-12.69-1.54.3-3.32.69-5.13,1-2.58.44-4.05.18-5.23-2.79-.94-2.39-2.26-4.63-3.65-7.39a9.57,9.57,0,0,0-1.22,1.85,95.43,95.43,0,0,0-2.37,9.75,12.58,12.58,0,0,1-2.59,6.06,48.11,48.11,0,0,1-4.28,4.64,8.78,8.78,0,0,1-7.13,2.42,17.81,17.81,0,0,1-8.08-2.37,37.53,37.53,0,0,0-7.18-3c-6-2.06-12-4-18-6-.58-.19-1.1-.54-1.68-.76a14.79,14.79,0,0,0-3.49-1.22c-3.93-.41-7.89-.74-11.84-.86a6.35,6.35,0,0,0-3.38,1.19,70.88,70.88,0,0,0-6.83,5.1c-2.42,2.08-5.32,3.17-8.18,4.25-3.25,1.24-5.88-.63-6.27-4.07a14.24,14.24,0,0,1,1.89-8.58c2.79-5.11,5.69-10.16,8.59-15.21,1.1-1.9,1.5-4.24,3.51-5.58a8.33,8.33,0,0,0,.78-.79c2.78-2.5,4.89-1.87,5.85,1.74.1.35.19.7.32,1.21,4,.61,6.75,3.41,9.3,6.25a8.06,8.06,0,0,0,5,2.88c5.52.77,11,1.43,16.58,2.13,1.46.18,2.92.4,4.38.54.8.08,1.62,0,2.88,0a65.4,65.4,0,0,0,8.64,5.84c-.06-4.87-.29-9.31-.12-13.74.2-5.44.74-10.86,1.09-16.3.15-2.35.18-4.7.3-7,.07-1.61.2-3.22.31-4.82.35-5.36,3.67-9.24,7.14-12.65,6.51-6.39,9.47-14.39,11.7-22.85a3.46,3.46,0,0,0,.23-1.46c-.56-2.68.77-5,1.3-7.53-1.29-1.52-2.46-3.07-3.82-4.43-2.55-2.54-4.39-5.36-4.39-9.11,0-.2-.26-.39-.59-.87-2,.9-3.36,2.24-3.46,4.61,0,1.12,0,2.24-.1,3.35a3,3,0,0,1-2.09,3,11.35,11.35,0,0,1-.46-1.14c-1.35-4.62-1.68-9.24,0-13.87,1.09-3,3.44-4.78,5.77-6.64a22.08,22.08,0,0,0,2.62-2c.35-.38.19-1.22.32-2.38-4.21,1.8-7.1,4.85-11.1,6-3.77,1-7.28,3-11.53,2.75.08-1.86,1.89-1.54,2.66-2.5l-2.32-1.18c1.23-.59,2.05-1,2.88-1.38,3.84-1.73,7.74-3.33,11.51-5.2a9.9,9.9,0,0,0,5.5-7.5,33.42,33.42,0,0,0-10.69,1.78,5,5,0,0,1-.66-.86,7.5,7.5,0,0,1-.31-1.38l3.44-1.11c2.35-.77,4.72-1.51,7.06-2.32a3.57,3.57,0,0,0,2.53-3.3,16.77,16.77,0,0,1,4.48-10,8.61,8.61,0,0,0,.85-1.47c-1.33-.52-2.49-.89-3.57-1.42-2.45-1.17-4.92-2.33-7.27-3.7a7.67,7.67,0,0,1-2.14-2.46,1.33,1.33,0,0,1,.29-1.27,1.79,1.79,0,0,1,1.35-.17c.31.06.58.43.81.71,2.47,3.05,6,3.72,9.57,4.25.17,0,.38-.24.57-.36-.07-.23-.07-.52-.22-.66-3.36-3.09-6.72-6.18-10.11-9.23-1-.87-.88-1.86-.88-3.58,1.33,1.26,2.21,2.07,3.06,2.92,1.85,1.83,3.67,3.7,5.54,5.51a20.68,20.68,0,0,0,9.39,5.06,5.6,5.6,0,0,0,1.82.17c.3,0,.77-.38.79-.61a1.61,1.61,0,0,0-.36-1.28,17.21,17.21,0,0,0-2-.88c-3.05-1.64-6.12-3.24-9.1-5a3.69,3.69,0,0,1-1.44-2.65,17,17,0,0,1,2.25.62c2.16.93,4.24,2.09,6.45,2.84,3.52,1.2,4.13.07,4-4.43a167,167,0,0,0,.75-17.47,11.56,11.56,0,0,0-2.27-8.47,32.64,32.64,0,0,1-2.62-4.89,27.26,27.26,0,0,0-1.62-2.9c-2.19-3.15-2.64-6.4-.52-9.71a2.67,2.67,0,0,0-.11-3.4c-.37-.49-.76-1-1.11-1.48"/></g><g id="Layer_1-2" data-name="Layer 1"><text class="cls-6" transform="translate(0 173.24)">C<tspan class="cls-7" x="102.33" y="0">a</tspan><tspan class="cls-8" x="204.65" y="0">t</tspan><tspan class="cls-7" x="306.98" y="0">chUp</tspan></text><path d="M295.31,170.33a124.16,124.16,0,0,1-13.05,4.09,62.83,62.83,0,0,1-13.61,1.43,46.48,46.48,0,0,1-10.95-1.22,24.69,24.69,0,0,1-8.8-4,18.54,18.54,0,0,1-5.93-7.47,28.63,28.63,0,0,1-2.15-11.87,64.87,64.87,0,0,1,.72-9.41c.47-3.27,1.12-6.62,1.94-10l9.62-39.09H233l3.28-14.12h20.26L262.92,52l17.6-2.87-7.16,29.47h36.43l-3.28,14.12H269.88l-9.62,40.73c-.68,2.59-1.3,5.12-1.84,7.57a32.79,32.79,0,0,0-.82,7.16q0,7.78,3.58,10.34c2.39,1.71,8.46,4.14,12.13,1.77,1.94-1.25,1,5,4,8"/><path d="M72.4,174a23,23,0,0,1-4.64-13.76,66.54,66.54,0,0,1-7.22.41A22.81,22.81,0,0,0,65.88,175c.93-.11,1.85-.23,2.75-.38C69.94,174.42,71.19,174.19,72.4,174Z"/><path d="M90.18,163.25,90,161.83a6.34,6.34,0,0,0-8.53-5.14c-1.18.45-2.45.9-3.83,1.37-1,.35-2.13.66-3.23.94a22.73,22.73,0,0,0,5.11,13.26,62.38,62.38,0,0,0,6.82-2.33A6.37,6.37,0,0,0,90.18,163.25Z"/><path d="M95,43.84a74.39,74.39,0,0,0-8.78-.49c-.92,0-1.82,0-2.72.06a22.87,22.87,0,0,0-3.08,15.14A42.84,42.84,0,0,1,85,58.29a40.36,40.36,0,0,1,5.18.33,23.56,23.56,0,0,1,.31-4.49A22.88,22.88,0,0,1,95,43.84Z"/><path d="M54.92,169.33A23,23,0,0,1,54,160a21,21,0,0,1-12.77-7.88q-6.55-8.49-6.55-23.23a95.52,95.52,0,0,1,3.48-25.68,81.6,81.6,0,0,1,9.92-22.62A54.06,54.06,0,0,1,63.82,64.43a36.16,36.16,0,0,1,10-4.63,23,23,0,0,1,1.77-15.53,52.17,52.17,0,0,0-18,6.75A72.3,72.3,0,0,0,36,71.18,94.8,94.8,0,0,0,22.38,99.52a112.05,112.05,0,0,0-4.71,32q0,20.26,10.44,32.13t28.45,11.87l1.41,0A23.26,23.26,0,0,1,54.92,169.33Z"/><path d="M111.29,49.16Q109,47.93,106,46.62a32.15,32.15,0,0,0-4.16-1.46,22.9,22.9,0,0,0-4.43,10.13,23.59,23.59,0,0,0-.28,4.87c.57.18,1.14.37,1.71.58,1,.37,1.92.74,2.8,1.13A9.62,9.62,0,0,0,113.81,58,6.36,6.36,0,0,0,111.29,49.16Z"/><path d="M100.31,61.33c.24.07,23,7.73,25,4,1.86-3.45-9-13-13.26-15.43-.46-.27-3.39-1-3.74-.57Z"/><path d="M78.31,170.33c.27.88,3.09,1.18,4,1,5-1,20.33-11.66,19-15-1.7-4.24-18-1-24,2-.78.39-2.26,2.17-2,3Z"/></g><g id="Layer_2-2" data-name="Layer 2"><polyline class="cls-9" points="518.31 76.33 554.81 39.83 590.31 75.33"/><ellipse cx="475.31" cy="170.83" rx="17" ry="12.5"/><ellipse cx="418.31" cy="170.83" rx="17" ry="12.5"/><path d="M307,158.57l-31.79,7.34a10.94,10.94,0,0,0,1.49,1.71l29.71-6.86A10.77,10.77,0,0,0,307,158.57Z"/><path d="M306.73,154.53a9.34,9.34,0,0,0-.75-1.88l-32.47,7.49a10.51,10.51,0,0,0,.15,2Z"/><path d="M273.63,159.09l31.78-7.34a10.8,10.8,0,0,0-1.48-1.71l-29.72,6.86A10.74,10.74,0,0,0,273.63,159.09Z"/><path d="M277.64,168.43c3.72,2.83,9.49,4,15.48,2.58s10.68-4.93,12.78-9.11Z"/><path d="M307.1,157.52a9.17,9.17,0,0,0-.15-2l-33.06,7.64a9.83,9.83,0,0,0,.75,1.88Z"/><path d="M303,149.24c-3.71-2.83-9.49-4-15.47-2.59s-10.68,4.94-12.78,9.11Z"/></g></g></svg>